Patient4_TMGait_0pt8_01_left_35_EMG.mot
version=1
nRows=30
nColumns=33
inDegrees=no
endheader
time	1LAddLong	2LGlutMax	3LGlutMed	4LIliopsoas	5LSemiMemb	6LBicFemLong	7LRecFem	8LVastMed	9LVastLat	10LGasMed	11LTibAnt	12lTibPost	13LPeroneusLong	14LSol	15LExtDigLong	16LFlexDigLong	17RAddLong	18RGlutMax	19RGlutMed	20RIliopsoas	21RSemiMemb	22RBicFemLong	23RRecFem	24RVastMed	25RVastLat	26RGasMed	27RTibAnt	28RTibPost	29RPeroneusLong	30RSol	31RExtDigLong	32RFlexDigLong
39.005	-0.027161	0.66864	0.12711	0.020142	0.026245	-0.25513	0.31128	0.034332	-0.65048	-0.084991	0.13855	-0.045929	-0.003662	-0.19196	0.070496	0.064697	-0.006256	-0.00824	-0.032959	0.030518	-0.23773	-0.057068	1.0071	-0.11337	-0.068207	0.000763	0.040588	-0.011139	-0.18127	0.075836	0.010681	-0.013428
39.006	-0.018768	0.76828	0.08728	0.019073	-0.12009	-0.17807	0.233	0.036163	-0.62988	-0.085449	0.10773	-0.045624	0.038147	-0.12054	0.46524	0.094604	-0.015106	-0.017548	0.030518	0.15747	-0.27893	-0.13565	0.96832	-0.11002	-0.062103	0.002747	0.25574	-0.015717	-0.2478	0.036469	0.011749	-0.013428
39.007	0.003357	0.86212	0.10361	0.020599	-0.25787	-0.15991	0.2626	0.023956	-0.52429	-0.11185	-0.016785	-0.036621	0.037689	-0.090027	1.0999	0.068359	-0.016022	-0.070038	-0.068359	0.19043	-0.32105	-0.20111	0.90714	-0.1741	-0.080414	0.000763	0.45685	-0.007629	-0.19226	-0.10178	0.006561	-0.011597
39.008	0.008698	0.93567	0.16113	0.006714	-0.28015	-0.041809	0.35873	0.020905	-0.50079	-0.12787	-0.024719	-0.039368	0.034485	-0.099182	0.20081	0.083313	-0.014954	-0.086823	-0.13962	0.072784	-0.39993	-0.27496	0.84335	-0.17136	-0.083466	0.016479	0.60577	-0.009613	-0.054169	-0.16708	0.005798	-0.007782
39.009	0.023193	1.0536	0.12344	0.016174	0.010376	0.093384	0.38406	-0.002441	-0.44403	-0.1294	-0.013733	-0.026703	-0.008392	-0.12573	-0.37231	0.09552	0.032806	-0.16281	-0.11643	0.029144	-0.38513	-0.27313	0.79788	-0.21057	-0.096893	0.020447	0.12451	-0.003815	0.18967	-0.15915	0.006714	-0.00824
39.01	0.039368	1.1235	0.12405	0.014648	0.21042	0.21011	0.44495	-0.021515	-0.33691	-0.16449	0.0354	-0.018463	-0.033417	-0.095215	-0.26215	0.091248	0.001831	-0.18417	-0.013733	0.036011	-0.36896	-0.31525	0.80582	-0.18417	-0.077515	0.010071	-0.55527	-0.004272	0.098267	-0.008545	0.014038	-0.013885
39.011	0.013428	1.1594	0.14877	0.006714	0.10651	0.16708	0.57022	-0.059509	-0.33798	-0.1648	-0.006561	-0.011139	-0.036926	-0.14008	-0.23392	0.075989	-0.027771	-0.24414	-0.17502	0.037842	-0.36163	-0.24979	0.76263	-0.26077	-0.070496	0.006866	-0.83221	-0.00351	-0.026398	0.0737	0.005493	-0.022888
39.012	0.006256	1.2512	0.11856	0.009003	0.024719	0.093536	0.56763	-0.052948	-0.40375	-0.16296	-0.031433	-0.006866	-0.015106	-0.16693	-0.40695	0.071106	0.00412	-0.3183	-0.44784	0.037079	-0.33127	-0.020142	0.72479	-0.23224	-0.057983	0.006561	-0.71854	-0.004425	0.072327	0.066986	0.007477	-0.02243
39.013	-0.001221	1.3387	0.035553	0.013885	-0.011749	0.18997	0.44693	-0.005798	-0.40863	-0.10346	-0.033112	-0.006409	0.042419	-0.15228	-0.33569	0.076599	0.009003	-0.3421	-0.25681	0.06012	-0.23682	0.12344	0.69427	-0.14084	-0.054169	0.015717	-0.14679	-0.003662	0.18372	-0.024261	0.006866	-0.015564
39.014	0.00824	1.4534	0.03891	-0.002289	-0.012207	0.1413	0.29877	-0.008545	-0.22064	-0.10544	-0.016174	-0.006866	0.013885	-0.12268	-0.17425	0.084076	0.036774	-0.37018	-0.18875	0.021667	-0.17731	0.18738	0.62134	-0.1149	-0.042572	0.009003	0.21576	-0.00412	0.071869	-0.027313	0.009155	-0.013275
39.015	0.006256	1.481	0.078583	0.012512	-0.027008	0.13123	0.28366	-0.021973	-0.12787	-0.098267	0.010986	-0.004883	0.010681	-0.11276	-0.089417	0.076141	0.068817	-0.45227	-0.28946	-0.005493	-0.17578	0.13809	0.61157	-0.084991	-0.026703	-0.000305	0.025177	-0.005798	-0.16388	0.045471	0.00351	-0.013733
39.016	0.004883	1.2811	0.008087	0.013885	-0.030518	0.31143	0.24918	-0.026093	-0.23682	-0.071564	-0.004883	0.004578	0.027008	-0.068054	-0.006104	0.086212	0.10574	-0.54794	-0.63629	-0.01358	-0.16663	0.12253	0.60242	0.018921	-0.009308	0.002594	-0.10422	-0.001984	-0.27557	0.081024	0.007324	-0.019073
39.017	0.01358	1.1967	-0.08667	0.010986	-0.044556	0.47195	0.1535	-0.013428	-0.2655	-0.064392	-0.019379	0.00412	0.053101	-0.080261	0.077057	0.085907	0.0914	-0.6337	-0.40253	-0.11887	-0.17181	0.07431	0.5806	0.04776	-0.011902	0.005951	-0.41611	-0.002594	-0.071869	-0.014954	0.008087	-0.017853
39.018	0.016174	1.2006	-0.16525	0.011292	-0.030365	0.41779	0.087891	-0.021973	-0.31235	-0.04425	0.000153	0.010529	0.022125	-0.067291	0.10025	0.08255	0.098724	-0.69961	-0.57877	-0.19821	-0.16159	0.087585	0.5928	0.073547	-0.030518	0.012817	-0.75546	-0.00351	0.1619	-0.045471	0.003662	-0.013428
39.019	0.023346	1.2091	-0.065155	-0.005341	-0.003052	0.20874	0.045624	-0.015259	-0.31357	-0.022736	0.008698	0.013733	-0.022278	-0.066223	0.097351	0.066681	0.13901	-0.74143	-0.63446	-0.20615	-0.14496	0.14099	0.60837	0.047455	-0.024109	0.010681	-0.48248	-0.006256	0.13016	0.019226	-0.000458	-0.009766
39.02	0.012512	1.1418	-0.13214	-0.002441	-0.01358	0.15518	0.000916	0.018768	-0.31708	-0.039825	0.025635	0.011749	-0.023651	-0.024719	0.09491	0.044098	0.1062	-0.82275	-0.6221	-0.20966	-0.11963	0.088348	0.62714	-0.009003	-0.037842	0.013733	0.63705	-0.003357	0.028992	-0.080719	0.001984	-0.005188
39.021	0.00351	1.0909	-0.10407	0.014648	-0.092926	0.083771	-0.030365	0.011749	-0.3009	-0.003357	0.015411	0.016632	0.00061	0.012817	0.070038	0.059967	0.065155	-0.81009	-0.64468	-0.072479	-0.17502	0.052338	0.73074	-0.016479	-0.013733	0.027924	1.4484	-0.00473	0.00061	-0.13397	0.001221	-0.006409
39.022	0.007172	0.91995	0.016022	0.018463	-0.08194	-0.43488	-0.034637	0.001678	-0.29007	0.02182	0.008698	0.019379	0.035706	-0.067291	0.040283	0.051575	0.03479	-0.80643	-0.90897	0.077515	-0.23941	0.07309	0.83221	-0.11322	-0.030518	0.019379	1.0536	-0.006409	-0.071716	-0.03006	0.000305	-0.00824
39.023	0.018005	0.82153	0.091705	0.04837	-0.085297	-0.45929	-0.057068	-0.005035	-0.28412	0.049591	0.014801	0.019836	0.077209	-0.079346	0.029907	0.04303	-0.027618	-0.71915	-0.9491	0.069122	-0.19867	0.04715	0.87265	-0.14358	-0.050507	-0.000763	0.90683	0.004578	-0.19913	0.11963	-0.000305	-0.006714
39.024	0.040283	0.7753	0.18326	0.026245	0.016022	-0.66376	-0.11002	-0.00473	-0.28305	0.074463	0.016937	0.032196	0.035553	-0.022583	0.037689	0.044861	-0.084534	-0.69626	-0.83084	0.067596	-0.14923	0.066833	0.86304	-0.14771	-0.044556	-0.00351	0.66223	-0.003815	-0.14786	0.14358	0.000153	-0.005798
39.025	0.037231	0.61905	0.13062	0.007477	0.14267	-0.68695	-0.14374	-0.001678	-0.24429	0.072479	0.013428	0.042725	0.013733	-0.024719	0.061646	0.021362	-0.067139	-0.65613	-0.83725	-0.046997	-0.063324	0.002289	0.93292	-0.16769	-0.054626	0.005646	0.29282	-0.001831	-0.17456	0.050507	0.002747	-0.002136
39.026	0.032806	0.54962	-0.016632	-0.012207	0.13214	-0.26093	-0.18463	0.001831	-0.23407	0.088806	0.007019	0.053558	-0.02243	-0.081635	0.076599	0.053864	-0.053253	-0.59097	-0.90195	-0.10788	-0.092621	-0.064087	0.93628	-0.18845	-0.043182	0.014191	-0.16632	-0.002136	-0.11002	-0.080109	-0.000153	0.006409
39.027	0.023651	0.49027	-0.16693	-0.00061	0.055695	-0.018158	-0.20004	0.012512	-0.20264	0.072937	0.0177	0.063019	-0.016327	-0.12405	0.071869	0.047913	0.014038	-0.45425	-1.0022	-0.11002	-0.081787	-0.19745	0.93246	-0.18005	-0.055847	0.02655	-0.62042	0.000458	0.012054	-0.20889	-0.004272	0.009003
39.028	0.02655	0.26993	-0.1062	0.007629	0.039825	0.034943	-0.24094	0.014496	-0.13825	0.023956	0.015411	0.079498	0.027008	-0.014801	0.049286	0.005646	0.033264	-0.51117	-0.96329	0.020294	-0.065155	-0.24719	0.93277	-0.2179	-0.054932	0.020599	-0.4837	-0.002441	0.076447	-0.24796	0.003967	0.002594
39.029	0.02121	-0.004425	-0.1683	0.019989	0.023651	0.041351	-0.2858	0.012512	-0.05661	-0.017853	0.018463	0.088196	-0.037079	0.066223	0.027466	-0.009613	0.015717	-0.52231	-0.83267	0.087891	-0.10605	-0.1294	0.93063	-0.21805	-0.039825	0.019379	0.016479	-0.003357	0.015717	-0.28809	-0.001221	0.005798
39.03	0.028839	-0.17181	-0.20905	0.025482	-0.000305	0.090332	-0.35675	0.020142	0.005341	-0.048828	0.017242	0.090637	-0.13718	0.079651	0.015564	-0.016022	-0.014343	-0.40298	-0.62439	0.058441	-0.16937	-0.025024	0.85999	-0.16281	-0.031128	0.014648	0.69122	-0.004425	-0.11078	-0.25513	-0.001373	-0.011292
39.031	0.007629	-0.2858	-0.215	-0.019836	-0.056458	0.15533	-0.32883	0.014954	-0.020905	-0.032349	0.00885	0.089569	0.35782	0.034943	0.015564	-0.001831	-0.03479	-0.34882	-0.58044	0.042419	-0.20065	0.11093	0.7843	-0.14008	-0.018311	0.005951	0.39566	-0.00473	-0.15884	0.006256	0.002899	-0.01709
39.032	-0.002747	-0.3804	-0.13794	-0.002594	-0.083923	0.24857	-0.28671	0.013428	-0.15839	-0.016479	0.008087	0.10346	0.21301	-0.10971	0.018921	-0.004578	-0.090942	-0.37552	-1.0002	0.19486	-0.1976	0.030365	0.69794	-0.16556	-0.002899	0.015106	0.10971	-0.002441	-0.058746	0.17273	-0.000305	-0.0177
39.033	0.002899	-0.51529	-0.28412	-0.001831	-0.066528	0.16159	-0.2681	0.020599	-0.26672	0.014343	0.00946	0.11627	-0.059509	-0.1709	0.026093	-0.014038	-0.11688	-0.38208	-1.6548	0.28686	-0.1471	0.0354	0.61584	-0.16495	0.020142	0.015717	-0.65369	-0.005646	0.1593	0.11246	0.001221	-0.018616
39.034	0.01358	-0.69138	-0.39063	-0.007477	-0.085907	0.049133	-0.26413	0.014191	-0.21179	0.0383	0.007019	0.1207	-0.12528	-0.12421	0.005646	-0.009613	-0.081482	-0.38055	-1.6763	0.18997	-0.10101	0.055389	0.59692	-0.060577	0.045319	0.020142	-0.80399	-0.002136	0.21545	0.019531	0.001373	-0.021973
